<mxfile host="app.diagrams.net">
  <diagram name="Diagrama de Componentes SGO">
    <mxGraphModel dx="982" dy="648" grid="1" gridSize="10" guides="1" tooltips="1" connect="1" arrows="1" fold="1" page="1" pageScale="1" pageWidth="827" pageHeight="1169" math="0" shadow="0">
      <root>
        <mxCell id="0" />
        <mxCell id="1" parent="0" />
        
        <!-- Interface de Usuário -->
        <mxCell id="UI" value="Interface de Usuário" style="rounded=1;whiteSpace=wrap;html=1;" vertex="1" parent="1">
          <mxGeometry x="40" y="100" width="160" height="90" as="geometry" />
        </mxCell>

        <!-- Módulo de Inscrições -->
        <mxCell id="ModuloInscricoes" value="Módulo de Inscrições" style="rounded=1;whiteSpace=wrap;html=1;" vertex="1" parent="1">
          <mxGeometry x="300" y="60" width="160" height="90" as="geometry" />
        </mxCell>

        <!-- Módulo de Alocação -->
        <mxCell id="ModuloAlocacao" value="Módulo de Alocação" style="rounded=1;whiteSpace=wrap;html=1;" vertex="1" parent="1">
          <mxGeometry x="300" y="180" width="160" height="90" as="geometry" />
        </mxCell>

        <!-- Módulo de Controle de Resultados -->
        <mxCell id="ModuloResultados" value="Módulo de Controle de Resultados" style="rounded=1;whiteSpace=wrap;html=1;" vertex="1" parent="1">
          <mxGeometry x="300" y="300" width="160" height="90" as="geometry" />
        </mxCell>

        <!-- Módulo de Relatórios -->
        <mxCell id="ModuloRelatorios" value="Módulo de Relatórios" style="rounded=1;whiteSpace=wrap;html=1;" vertex="1" parent="1">
          <mxGeometry x="300" y="420" width="160" height="90" as="geometry" />
        </mxCell>

        <!-- Banco de Dados -->
        <mxCell id="BancoDados" value="Banco de Dados" style="ellipse;whiteSpace=wrap;html=1;" vertex="1" parent="1">
          <mxGeometry x="600" y="240" width="120" height="80" as="geometry" />
        </mxCell>

        <!-- Ligações -->
        <mxCell id="edge1" style="edgeStyle=orthogonalEdgeStyle;rounded=1;exitX=1;exitY=0.5;exitDx=0;exitDy=0;" edge="1" parent="1" source="UI" target="ModuloInscricoes">
          <mxGeometry relative="1" as="geometry" />
        </mxCell>

        <mxCell id="edge2" style="edgeStyle=orthogonalEdgeStyle;rounded=1;exitX=1;exitY=0.5;exitDx=0;exitDy=0;" edge="1" parent="1" source="UI" target="ModuloAlocacao">
          <mxGeometry relative="1" as="geometry" />
        </mxCell>

        <mxCell id="edge3" style="edgeStyle=orthogonalEdgeStyle;rounded=1;exitX=1;exitY=0.5;exitDx=0;exitDy=0;" edge="1" parent="1" source="UI" target="ModuloResultados">
          <mxGeometry relative="1" as="geometry" />
        </mxCell>

        <mxCell id="edge4" style="edgeStyle=orthogonalEdgeStyle;rounded=1;exitX=1;exitY=0.5;exitDx=0;exitDy=0;" edge="1" parent="1" source="UI" target="ModuloRelatorios">
          <mxGeometry relative="1" as="geometry" />
        </mxCell>

        <mxCell id="edge5" style="edgeStyle=orthogonalEdgeStyle;rounded=1;exitX=1;exitY=0.5;exitDx=0;exitDy=0;" edge="1" parent="1" source="ModuloInscricoes" target="BancoDados">
          <mxGeometry relative="1" as="geometry" />
        </mxCell>

        <mxCell id="edge6" style="edgeStyle=orthogonalEdgeStyle;rounded=1;exitX=1;exitY=0.5;exitDx=0;exitDy=0;" edge="1" parent="1" source="ModuloAlocacao" target="BancoDados">
          <mxGeometry relative="1" as="geometry" />
        </mxCell>

        <mxCell id="edge7" style="edgeStyle=orthogonalEdgeStyle;rounded=1;exitX=1;exitY=0.5;exitDx=0;exitDy=0;" edge="1" parent="1" source="ModuloResultados" target="BancoDados">
          <mxGeometry relative="1" as="geometry" />
        </mxCell>

        <mxCell id="edge8" style="edgeStyle=orthogonalEdgeStyle;rounded=1;exitX=1;exitY=0.5;exitDx=0;exitDy=0;" edge="1" parent="1" source="ModuloRelatorios" target="BancoDados">
          <mxGeometry relative="1" as="geometry" />
        </mxCell>
      </root>
    </mxGraphModel>
  </diagram>
</mxfile>
